# xmcd CD database file
#
# Track frame offsets:
#	150
#	51976
#	78447
#	107716
#
# Disc length: 1803 seconds
#
# Revision: 0
# Processed by: cddbd v1.5.2PL0 Copyright (c) Steve Scherf et al.
# Submitted via: CDex 1.70beta2
#
DISCID=2c070904
DTITLE=Lionel Hampton and The Just Jazz All Stars - jazz magazine - Lionel Hampton
DYEAR=1900
DGENRE=Jazz
TTITLE0=L. Hampton - Flying Home
TTITLE1=L. Hampton - Perdido
TTITLE2=L. Hampton - That's my desire
TTITLE3=L. Hampton - Central Avenue Breakdown
EXTD=
EXTT0=
EXTT1=
EXTT2=
EXTT3=
PLAYORDER=
